<svg width="41" height="41" fill="none" xmlns="http://www.w3.org/2000/svg"><path d="M34.575.643h-28.4C2.932.643.293 3.275.293 6.51v28.323c0 3.235 2.64 5.868 5.884 5.868h28.399c3.244 0 5.884-2.633 5.884-5.868V6.51c0-3.236-2.64-5.868-5.884-5.868zm3.53 34.19a3.53 3.53 0 0 1-3.53 3.521h-28.4a3.53 3.53 0 0 1-3.53-3.52V6.51a3.53 3.53 0 0 1 3.53-3.521h28.4a3.53 3.53 0 0 1 3.53 3.52v28.324z" fill="#070707" stroke="#070707" stroke-width=".5"/><mask id="a" fill="#fff"><path d="M29.164 29.686h-4.312V22.485c0-.497-.036-.988-.16-1.473-.516-1.998-2.742-1.881-3.628-.934-.445.476-.735 1.014-.748 1.679-.002.158-.012.316-.012.474v7.454H16V16.32h4.302v1.793l.034.015c.03-.042.062-.083.093-.125.43-.599.926-1.13 1.585-1.488.735-.402 1.529-.536 2.355-.512.895.026 1.745.227 2.51.709.98.617 1.579 1.52 1.929 2.604.273.844.362 1.716.363 2.598.002 2.538.001 5.077 0 7.616 0 .05-.004.1-.007.156z"/></mask><path d="M29.164 29.686h-4.312V22.485c0-.497-.036-.988-.16-1.473-.516-1.998-2.742-1.881-3.628-.934-.445.476-.735 1.014-.748 1.679-.002.158-.012.316-.012.474v7.454H16V16.32h4.302v1.793l.034.015c.03-.042.062-.083.093-.125.43-.599.926-1.13 1.585-1.488.735-.402 1.529-.536 2.355-.512.895.026 1.745.227 2.51.709.98.617 1.579 1.52 1.929 2.604.273.844.362 1.716.363 2.598.002 2.538.001 5.077 0 7.616 0 .05-.004.1-.007.156z" fill="#070707"/><path d="M29.164 29.686v.031h.029l.002-.029-.031-.002zm-4.312 0h-.03v.031h.03v-.03zm0-7.201h.032-.031zm-.16-1.473.029-.007-.03.008zm-3.628-.934.023.02-.023-.02zm-.748 1.679h-.03.03zm-.012.474h.031-.03zm0 7.454v.03h.03v-.03h-.03zm-4.304 0h-.03v.03H16v-.03zm0-13.365v-.03h-.03v.03H16zm4.302 0h.03v-.03h-.03v.03zm0 1.793h-.031v.02l.018.008.013-.028zm.034.015-.012.028.022.01.015-.02-.025-.018zm.093-.125.024.018-.024-.018zm1.585-1.488.014.026-.014-.026zm2.355-.512.001-.03v.03zm2.51.709.016-.026-.016.026zm1.929 2.604-.03.01.03-.01zm.363 2.598h.03-.03zm0 7.616h-.03.03zm-.007.126H24.852v.061H29.164v-.061zm-4.28.03V29.487h-.062V29.687h.061zm0-.198v-7.003h-.062v7.003h.061zm0-7.003c0-.499-.038-.992-.163-1.48l-.06.015c.124.481.161.97.161 1.465h.062zm-.163-1.48c-.261-1.012-.957-1.49-1.7-1.595-.74-.103-1.529.166-1.979.647l.045.042c.435-.466 1.203-.73 1.925-.628.72.1 1.395.563 1.65 1.55l.059-.016zm-3.679-.948c-.448.48-.744 1.025-.756 1.7h.061c.012-.655.298-1.186.74-1.658l-.045-.042zm-.756 1.7c-.003.155-.012.317-.012.474h.061c0-.158.01-.313.012-.474h-.061zm-.012.474v7.249h.06l.001-7.248h-.061zm0 7.249V29.686h.06V29.48h-.06zm.03.175H16v.06H20.304v-.06zm-4.273.03V16.32h-.062V29.685h.062zM16 16.351H20.302v-.061H16v.06zm4.271-.03V18.112h.061V16.32h-.061zm.018 1.82.035.015.024-.056-.034-.015-.024.056zm.072.005.092-.125-.05-.036-.092.125.05.036zm.092-.125c.43-.597.922-1.124 1.575-1.48l-.03-.053c-.663.362-1.162.897-1.594 1.497l.05.036zm1.575-1.48c.73-.398 1.518-.532 2.34-.508l.002-.06c-.83-.025-1.63.11-2.371.515l.03.053zm2.34-.508c.891.026 1.735.227 2.495.705l.032-.052c-.77-.485-1.626-.688-2.525-.714l-.002.061zm2.495.705c.973.612 1.567 1.509 1.916 2.587l.058-.018c-.352-1.09-.953-2-1.942-2.621l-.032.052zm1.916 2.587c.271.84.36 1.709.361 2.589h.062c-.001-.885-.09-1.76-.365-2.608l-.058.02zm.361 2.589c.003 2.538.001 5.077.001 7.616h.061c0-2.539.002-5.078 0-7.616h-.062zm.001 7.616c0 .048-.004.096-.007.155l.06.003c.004-.056.008-.107.008-.158h-.06z" fill="#070707" mask="url(#a)"/><path d="M15.61 29.67H11.36V16.325H15.61V29.67zM13.67 9.672c.67-.001 1.24.236 1.645.643.404.406.643.982.645 1.659.002.67-.238 1.24-.648 1.644-.41.403-.991.64-1.675.64-1.332.002-2.281-.95-2.284-2.29-.002-1.34.96-2.295 2.316-2.296z" fill="#070707" stroke="#070707" stroke-width=".031"/></svg>