<?xml version="1.0" encoding="UTF-8"?><!DOCTYPE svg PUBLIC "-//W3C//DTD SVG 1.1//EN" "http://www.w3.org/Graphics/SVG/1.1/DTD/svg11.dtd"><svg xmlns="http://www.w3.org/2000/svg" xmlns:xlink="http://www.w3.org/1999/xlink"><defs><radialGradient id="a" cx="0" cy="0" r="1" gradientUnits="userSpaceOnUse" gradientTransform="matrix(62.1407 0 0 61.2673 31.155 21.944)"><stop stop-color="#442F55" stop-opacity=".98"/><stop offset="1" stop-color="#12002C"/></radialGradient><radialGradient id="a" cx="0" cy="0" r="1" gradientUnits="userSpaceOnUse" gradientTransform="matrix(62.1406 0 0 61.2673 31.157 21.96)"><stop stop-color="#423325" stop-opacity=".98"/><stop offset="1" stop-color="#1C0A00"/></radialGradient><clipPath id="a"><path fill="#fff" transform="translate(.085)" d="M0 0h40.111v40H0z"/></clipPath><clipPath id="a"><path fill="#fff" transform="translate(.487)" d="M0 0h58.252v88.991H0z"/></clipPath><radialGradient id="a" cx="0" cy="0" r="1" gradientUnits="userSpaceOnUse" gradientTransform="matrix(62.0565 0 0 61.1565 30.617 21.92)"><stop stop-color="#34364E" stop-opacity=".98"/><stop offset="1" stop-color="#0C0824"/></radialGradient></defs><symbol id="AE"><g fill="none"><path d="M4.202 3.783h81.76v81.005H4.203V3.783Z" fill="url(#a)"/><path d="M4.202 3.784h81.76v81.005H4.203V3.784ZM.487 88.572h89.21V0H.486v88.572Zm63.111-45.878c1.894 0 2.572 0 2.751-.072 0-.273.071-.455.071-.637 0-2.037-.964-5.821-4.823-5.821-3.572 0-5.09 3.183-5.466 6.549h7.467v-.019ZM56.06 47.88c.071 5.112 2.447 8.55 8.11 8.55 2.197 0 4.09-.31 6.055-1.165.268-.109.447-.072.447.273v4.73c0 .382-.107.564-.375.764-1.965.982-4.43 1.437-7.467 1.437-9.807 0-13.487-7.385-13.487-15.59 0-8.931 4.537-16.244 12.522-16.244 8.11 0 10.933 6.93 10.933 12.57 0 1.819-.108 3.292-.304 4.02-.072.31-.179.418-.482.491-.75.11-2.93.273-6.199.273h-9.736v-.11h-.017Zm-19.936-3.857c-1.036-4.202-3.573-13.352-4.501-17.79h-.072c-.786 4.42-2.822 11.915-4.34 17.79h8.913Zm-10.432 6.13-2.93 11.316c-.071.309-.178.418-.553.418h-5.484c-.376 0-.447-.11-.376-.564L26.907 23.74c.178-.673.303-1.218.375-3.11 0-.273.107-.382.303-.382h7.807c.268 0 .375.072.446.382l11.808 40.766c.072.31 0 .491-.304.491h-6.127c-.303 0-.482-.11-.554-.382l-3.054-11.351H25.692Z" fill="#D8A1FF"/></g></symbol><symbol id="AI"><g fill="none"><path d="M4.202 3.783h81.76v81.005H4.203V3.783Z" fill="url(#a)"/><path d="M4.202 3.784h81.76v81.005H4.203V3.784ZM.487 88.572h89.21V0H.486v88.572Zm58.43-56.992c0-.31.108-.455.447-.455h5.842c.303 0 .446.11.446.455v29.87c0 .309-.071.454-.446.454h-5.77c-.375 0-.483-.182-.483-.49V31.58h-.035Zm-.41-8.605c0-2.42 1.68-3.856 3.787-3.856 2.269 0 3.787 1.546 3.787 3.856 0 2.492-1.59 3.857-3.859 3.857-2.143.018-3.715-1.346-3.715-3.857Zm-16.72 21.047c-1.036-4.202-3.501-13.352-4.43-17.79h-.072c-.786 4.42-2.75 11.915-4.305 17.79h8.807Zm-10.325 6.13-2.93 11.352c-.071.31-.178.382-.553.382h-5.467c-.375 0-.446-.11-.375-.564l10.557-37.619c.179-.673.304-1.292.375-3.147 0-.273.108-.382.304-.382h7.806c.268 0 .376.073.447.382l11.826 40.839c.071.31 0 .491-.304.491h-6.163c-.304 0-.482-.073-.554-.346l-3.054-11.387H31.462Z" fill="#FF7F18"/></g></symbol><symbol id="Behance"><g fill="none"><g clip-path="url(#a)" fill="#070707" stroke="#070707" stroke-width=".5"><path d="M34.32 0H5.96C2.72 0 .085 2.628.085 5.86v28.28C.085 37.372 2.72 40 5.96 40h28.36c3.24 0 5.876-2.629 5.876-5.86V5.86C40.196 2.627 37.56 0 34.32 0Zm3.526 34.14a3.525 3.525 0 0 1-3.526 3.516H5.96a3.525 3.525 0 0 1-3.525-3.515V5.859A3.525 3.525 0 0 1 5.96 2.344h28.36a3.525 3.525 0 0 1 3.526 3.515v28.282Z"/><path d="M18.965 16.484c0-2.585-2.108-4.687-4.7-4.687H7.214v16.406h7.05c2.593 0 4.701-2.102 4.701-4.687A4.67 4.67 0 0 0 17.37 20a4.67 4.67 0 0 0 1.596-3.516Zm-2.35 7.032a2.35 2.35 0 0 1-2.35 2.343h-4.7v-4.687h4.7a2.35 2.35 0 0 1 2.35 2.344Zm-7.05-4.688v-4.687h4.7a2.35 2.35 0 0 1 2.35 2.343 2.35 2.35 0 0 1-2.35 2.344h-4.7ZM27.191 16.484c-3.24 0-5.876 2.629-5.876 5.86 0 3.23 2.636 5.86 5.876 5.86a5.9 5.9 0 0 0 5.089-2.93l-2.035-1.173a3.53 3.53 0 0 1-6.378-.585h9.2v-1.172c0-3.231-2.636-5.86-5.876-5.86Zm-3.324 4.688a3.53 3.53 0 0 1 6.648 0h-6.648ZM22.49 11.797h9.402v2.344H22.49v-2.344Z"/></g></g></symbol><symbol id="Dribble"><g fill="none"><path d="m30.664 7.902.305-.384-.378-.313A16.673 16.673 0 0 0 19.92 3.36a16.9 16.9 0 0 0-4.097.525l-.727.181.447.602c1.39 1.87 3.388 4.696 5.78 9.122l.207.382.408-.152c4.527-1.68 7.24-4.252 8.725-6.118Zm-17.3-2.758-.246-.323-.366.173c-4.496 2.121-7.903 6.172-9.247 11.119l-.167.61.633.02c2.476.079 8.394-.038 14.952-1.795l.619-.165-.311-.56c-2.544-4.584-4.683-7.518-5.868-9.079Zm19.453 4.26-.388-.462-.381.466c-1.656 2.021-4.532 4.647-9.084 6.428l-.506.198.24.488a72.893 72.893 0 0 1 2.8 6.427l.144.379.4-.061a38.402 38.402 0 0 1 8.637-.323c.56.046.92.099 1.34.16l.275.039.512.072.055-.514a17.62 17.62 0 0 0-4.044-13.298ZM20.67 17.03l-.185-.37-.399.113c-7.713 2.19-14.508 2.124-16.624 2.039l-.482-.02-.037.48-.002.035c-.037.476-.074.965-.074 1.485 0 5.234 2.264 9.906 5.835 13.102l.373.334.333-.373a49.75 49.75 0 0 1 3.556-3.608l.002-.001c2.746-2.532 6.28-5.21 10.128-6.38l.517-.157-.196-.503a74.456 74.456 0 0 0-2.745-6.176Zm9.49 7.897h-.006a38.168 38.168 0 0 0-3.182.292l-.595.08.186.57c.924 2.844 1.688 5.857 2.181 8.99l.125.79.655-.457a17.321 17.321 0 0 0 6.719-9.386l.165-.57-.59-.066c-1.46-.165-3.31-.331-5.658-.243Zm-5.656 1.185-.154-.453-.46.133c-3.381.984-6.918 3.535-9.598 5.996-1.296 1.178-2.341 2.297-3.181 3.213l-.413.451.524.315c2.545 1.535 5.501 2.438 8.69 2.438 2.394 0 4.652-.506 6.714-1.397l.348-.15-.051-.376c-.484-3.574-1.339-6.98-2.42-10.17ZM.868 20.782c0-10.753 8.567-19.499 19.054-19.499 10.487 0 19.054 8.746 19.054 19.5 0 10.752-8.567 19.498-19.054 19.498C9.435 40.281.868 31.535.868 20.782Z" fill="#070707" stroke="#070707"/></g></symbol><symbol id="Figma"><g fill="none"><g clip-path="url(#a)"><path d="M15.046 88.991c8.038 0 14.558-6.64 14.558-14.826V59.34H15.046c-8.04 0-14.56 6.64-14.56 14.825 0 8.186 6.521 14.826 14.56 14.826Z" fill="#0ACF83"/><path d="M.487 44.496c0-8.186 6.52-14.826 14.559-14.826h14.558v29.67H15.046C7.006 59.32.486 52.681.486 44.495Z" fill="#A259FF"/><path d="M.487 14.826C.487 6.64 7.007 0 15.046 0h14.558v29.67H15.046c-8.04 0-14.56-6.658-14.56-14.844Z" fill="#F24E1E"/><path d="M29.622 0H44.18c8.038 0 14.558 6.64 14.558 14.826S52.22 29.65 44.181 29.65H29.62V0Z" fill="#FF7262"/><path d="M58.74 44.496c0 8.186-6.52 14.825-14.56 14.825-8.038 0-14.558-6.64-14.558-14.825 0-8.186 6.52-14.826 14.559-14.826 8.038 0 14.558 6.64 14.558 14.826Z" fill="#1ABCFE"/></g></g></symbol><symbol id="Instagram"><g fill="none"><path d="M12.166 1.293h.5v-.01h15.905c5.965 0 10.847 4.985 10.847 11.112V29.17c0 6.128-4.883 11.112-10.838 11.112H12.166C6.2 40.281 1.31 35.305 1.31 29.188V12.405C1.31 6.278 6.2 1.293 12.166 1.293Zm-8.848 11.12v16.785c0 4.986 3.928 9.017 8.848 9.017H28.58c4.904 0 8.83-4.032 8.83-9.036V12.405c0-5.004-3.927-9.036-8.839-9.036H12.166c-4.913 0-8.838 4.032-8.848 9.045Zm28.084-3.93c0-.59.454-1.038 1.005-1.038.55 0 1.004.448 1.004 1.038 0 .59-.454 1.038-1.004 1.038s-1.004-.448-1.004-1.038ZM10.345 20.787c0-5.656 4.525-10.266 10.03-10.266 5.504 0 10.029 4.61 10.029 10.266s-4.525 10.266-10.03 10.266c-5.504 0-10.029-4.61-10.029-10.266Zm18.05 0c0-4.534-3.56-8.19-8.02-8.19-4.461 0-8.021 3.656-8.021 8.19 0 4.534 3.56 8.19 8.02 8.19 4.461 0 8.021-3.656 8.021-8.19Z" fill="#070707" stroke="#070707"/></g></symbol><symbol id="LinkedIn"><g fill="none"><path d="M34.575.643h-28.4C2.932.643.293 3.275.293 6.51v28.323c0 3.235 2.64 5.868 5.884 5.868h28.399c3.244 0 5.884-2.633 5.884-5.868V6.51c0-3.236-2.64-5.868-5.884-5.868zm3.53 34.19a3.53 3.53 0 0 1-3.53 3.521h-28.4a3.53 3.53 0 0 1-3.53-3.52V6.51a3.53 3.53 0 0 1 3.53-3.521h28.4a3.53 3.53 0 0 1 3.53 3.52v28.324z" fill="#070707" stroke="#070707" stroke-width=".5"/><mask id="a" fill="#fff"><path d="M29.164 29.686h-4.312v-7.201c0-.497-.036-.988-.16-1.473-.516-1.998-2.742-1.881-3.628-.934-.445.476-.735 1.014-.748 1.679-.002.158-.012.316-.012.474v7.454H16V16.32h4.302v1.793l.034.015c.03-.042.062-.083.093-.125.43-.599.926-1.13 1.585-1.488.735-.402 1.529-.536 2.355-.512.895.026 1.745.227 2.51.709.98.617 1.579 1.52 1.929 2.604.273.844.362 1.716.363 2.598.002 2.538.001 5.077 0 7.616 0 .05-.004.1-.007.156z"/></mask><path d="M29.164 29.686h-4.312v-7.201c0-.497-.036-.988-.16-1.473-.516-1.998-2.742-1.881-3.628-.934-.445.476-.735 1.014-.748 1.679-.002.158-.012.316-.012.474v7.454H16V16.32h4.302v1.793l.034.015c.03-.042.062-.083.093-.125.43-.599.926-1.13 1.585-1.488.735-.402 1.529-.536 2.355-.512.895.026 1.745.227 2.51.709.98.617 1.579 1.52 1.929 2.604.273.844.362 1.716.363 2.598.002 2.538.001 5.077 0 7.616 0 .05-.004.1-.007.156z" fill="#070707"/><path d="M29.164 29.686v.031h.029l.002-.029-.031-.002zm-4.312 0h-.03v.031h.03v-.03zm0-7.201h.032-.031zm-.16-1.473.029-.007-.03.008zm-3.628-.934.023.02-.023-.02zm-.748 1.679h-.03.03zm-.012.474h.031-.03zm0 7.454v.03h.03v-.03h-.03zm-4.304 0h-.03v.03H16v-.03zm0-13.365v-.03h-.03v.03H16zm4.302 0h.03v-.03h-.03v.03zm0 1.793h-.031v.02l.018.008.013-.028zm.034.015-.012.028.022.01.015-.02-.025-.018zm.093-.125.024.018-.024-.018zm1.585-1.488.014.026-.014-.026zm2.355-.512.001-.03v.03zm2.51.709.016-.026-.016.026zm1.929 2.604-.03.01.03-.01zm.363 2.598h.03-.03zm0 7.616h-.03.03zm-.007.126h-4.312v.061h4.312v-.061zm-4.28.03v-.199h-.062v.2h.061zm0-.198v-7.003h-.062v7.003h.061zm0-7.003c0-.499-.038-.992-.163-1.48l-.06.015c.124.481.161.97.161 1.465h.062zm-.163-1.48c-.261-1.012-.957-1.49-1.7-1.595-.74-.103-1.529.166-1.979.647l.045.042c.435-.466 1.203-.73 1.925-.628.72.1 1.395.563 1.65 1.55l.059-.016zm-3.679-.948c-.448.48-.744 1.025-.756 1.7h.061c.012-.655.298-1.186.74-1.658l-.045-.042zm-.756 1.7c-.003.155-.012.317-.012.474h.061c0-.158.01-.313.012-.474h-.061zm-.012.474v7.249h.06l.001-7.248h-.061zm0 7.249v.206h.06v-.206h-.06zm.03.175H16v.06h4.304v-.06zm-4.273.03V16.32h-.062v13.365h.062zM16 16.351h4.302v-.061H16v.06zm4.271-.03v1.791h.061V16.32h-.061zm.018 1.82.035.015.024-.056-.034-.015-.024.056zm.072.005.092-.125-.05-.036-.092.125.05.036zm.092-.125c.43-.597.922-1.124 1.575-1.48l-.03-.053c-.663.362-1.162.897-1.594 1.497l.05.036zm1.575-1.48c.73-.398 1.518-.532 2.34-.508l.002-.06c-.83-.025-1.63.11-2.371.515l.03.053zm2.34-.508c.891.026 1.735.227 2.495.705l.032-.052c-.77-.485-1.626-.688-2.525-.714l-.002.061zm2.495.705c.973.612 1.567 1.509 1.916 2.587l.058-.018c-.352-1.09-.953-2-1.942-2.621l-.032.052zm1.916 2.587c.271.84.36 1.709.361 2.589h.062c-.001-.885-.09-1.76-.365-2.608l-.058.02zm.361 2.589c.003 2.538.001 5.077.001 7.616h.061c0-2.539.002-5.078 0-7.616h-.062zm.001 7.616c0 .048-.004.096-.007.155l.06.003c.004-.056.008-.107.008-.158h-.06z" fill="#070707" mask="url(#a)"/><path d="M15.61 29.67h-4.25V16.325h4.25V29.67zM13.67 9.672c.67-.001 1.24.236 1.645.643.404.406.643.982.645 1.659.002.67-.238 1.24-.648 1.644-.41.403-.991.64-1.675.64-1.332.002-2.281-.95-2.284-2.29-.002-1.34.96-2.295 2.316-2.296z" fill="#070707" stroke="#070707" stroke-width=".031"/></g></symbol><symbol id="PS"><g fill="none"><path d="M3.713 3.78h81.665v80.854H3.713V3.779Z" fill="url(#a)"/><path d="M3.713 3.78h81.665v80.854H3.713V3.779ZM0 88.412h89.073V0H0v88.413Zm60.066-52.128c-2.927 0-3.927 1.508-3.927 2.761 0 1.363.66 2.308 4.606 4.38 5.819 2.87 7.64 5.632 7.64 9.666 0 6.05-4.534 9.302-10.657 9.302-3.23 0-6.016-.672-7.604-1.617-.268-.109-.304-.309-.304-.6V54.6c0-.381.179-.49.447-.308a13.66 13.66 0 0 0 7.461 2.235c2.928 0 4.16-1.254 4.16-2.944 0-1.363-.858-2.562-4.606-4.542-5.266-2.562-7.462-5.16-7.462-9.521 0-4.87 3.749-8.921 10.246-8.921 3.196 0 5.427.49 6.64 1.053.304.182.376.491.376.763v5.179c0 .309-.179.49-.554.381-1.642-1.053-4.052-1.69-6.462-1.69ZM28.15 40.773c.857.072 1.517.072 2.999.072 4.337 0 8.425-1.544 8.425-7.558 0-4.797-2.927-7.214-7.872-7.214a67.97 67.97 0 0 0-3.57.11l.018 14.59Zm-6.622-20.06c0-.272.517-.454.82-.454 2.375-.109 5.91-.182 9.568-.182 10.282 0 14.299 5.742 14.299 13.064 0 9.594-6.837 13.718-15.227 13.718-1.41 0-1.892-.072-2.892-.072v14.499c0 .309-.107.454-.446.454h-5.676c-.304 0-.447-.109-.447-.454V20.713Z" fill="#31C5F0"/></g></symbol></svg>