<?xml version="1.0" encoding="UTF-8"?><!DOCTYPE svg PUBLIC "-//W3C//DTD SVG 1.1//EN" "http://www.w3.org/Graphics/SVG/1.1/DTD/svg11.dtd"><svg xmlns="http://www.w3.org/2000/svg" xmlns:xlink="http://www.w3.org/1999/xlink"><defs><path id="a" d="M71.6 5h58.9C184.3 5 197 17.8 197 71.6v58.9c0 53.8-12.8 66.5-66.6 66.5H71.5C17.7 197 5 184.2 5 130.4V71.5C5 17.8 17.8 5 71.6 5z"/></defs><symbol id="2gis-logo-1" viewBox="0 0 11216.09 4775.7"><g clip-rule="evenodd" fill-rule="evenodd" image-rendering="optimizeQuality" shape-rendering="geometricPrecision" text-rendering="geometricPrecision"><g fill-rule="nonzero"><path d="M4775.84 2387.87c0-293.75-55.66-573.93-152.69-833.81-25.67 855.4-895.11 1517.68-1405.56 1955.95h1277.69c178.6-334.64 280.56-716.41 280.56-1122.14zM3852.17 504.36C3447.63 189.4 2940.41 0 2387.97 0 1069.14 0 0 1069.14 0 2387.87 0 3706.59 1069.14 4775.7 2387.97 4775.7c603.91 0 1153.8-225.95 1574.32-595.72H2233.48l-5.27-507.69c1041.67-905.55 1680.23-1517.96 1680.23-2109.49 0-219.84-83.74-497.26-460.58-497.26-298.4 0-586.26 172.85-533.94 895.11h-607.14C2154.95 1123.23 2610.35 458.4 3479.18 458.4c134.7 0 259.3 16.08 372.99 45.96zM6990.65 1650.41h564.82c19.31-429.6-125.46-1110.38-1057.15-1110.38-685.57 0-1182.83 410.43-1182.83 1264.87 0 115.87 4.79 714.47 4.79 1086.18 0 926.99 642.16 1129.69 1182.84 1129.69 323.46 0 791.72-72.45 1008.93-308.98V2234.54H6449.98v535.88h473.15v651.74c-357.29 120.66-1009.03 168.97-1009.03-651.74V1804.9c0-574.5 265.56-772.41 559.98-772.41 304.19 0 516.57 154.49 516.57 617.92zm4201.34 1433.74c24.1-1322.67-1491.68-883.44-1477.3-1622.02 4.8-260.63 173.8-429.64 449.05-429.64 294.46 0 468.13 173.8 463.33 627.64h555.19c14.52-410.42-82.03-1110.38-999.21-1110.38-569.7 0-1037.93 280.05-1047.65 902.76-24.11 1269.56 1501.4 854.44 1477.29 1622.05-9.72 313.77-236.66 453.74-492.46 453.74-299.26 0-540.68-173.79-492.37-695.16h-560.12c-62.72 690.37 241.46 1182.84 1047.69 1182.84 680.65 0 1066.83-376.64 1076.56-931.83zm-2550.38 888.27h-569.57V593.17h569.57zm0 0h-569.57V593.17h569.57z"/></g></g></symbol><symbol id="vk-1" viewBox="0 0 202 202"><use xlink:href="#a" overflow="visible" fill-rule="evenodd" clip-rule="evenodd" fill="#5181b8"/><clipPath id="b"><use xlink:href="#a" overflow="visible"/></clipPath><path d="M0 0h202v202H0z" style="clip-path:url(#b);fill:#000"/><path d="M162.2 71.1c.9-3 0-5.1-4.2-5.1h-14c-3.6 0-5.2 1.9-6.1 4 0 0-7.1 17.4-17.2 28.6-3.3 3.3-4.7 4.3-6.5 4.3-.9 0-2.2-1-2.2-4V71.1c0-3.6-1-5.1-4-5.1H86c-2.2 0-3.6 1.7-3.6 3.2 0 3.4 5 4.2 5.6 13.6v20.6c0 4.5-.8 5.3-2.6 5.3-4.7 0-16.3-17.4-23.1-37.4-1.4-3.7-2.7-5.3-6.3-5.3H42c-4 0-4.8 1.9-4.8 4 0 3.7 4.7 22.1 22.1 46.4C70.9 133 87.2 142 102 142c8.9 0 10-2 10-5.4V124c0-4 .8-4.8 3.7-4.8 2.1 0 5.6 1 13.9 9 9.5 9.5 11.1 13.8 16.4 13.8h14c4 0 6-2 4.8-5.9-1.3-3.9-5.8-9.6-11.8-16.4-3.3-3.9-8.2-8-9.6-10.1-2.1-2.7-1.5-3.9 0-6.2 0-.1 17.1-24.1 18.8-32.3z" style="fill-rule:evenodd;clip-rule:evenodd;fill:#fff"/></symbol><symbol id="yandex-ru" viewBox="0 0 512 201" preserveAspectRatio="xMidYMid"><path d="M83.145 0H56.264C29.382 0 6.252 20.005 6.252 58.764c0 23.131 11.252 40.635 30.632 49.387L.625 173.167c-1.25 1.876 0 3.751 1.876 3.751H19.38c1.25 0 2.5-.625 3.125-1.875l33.134-63.766h11.877v63.766c0 .625.626 1.875 1.876 1.875h15.004c1.25 0 1.875-.625 1.875-1.875V2.5C85.646.625 85.021 0 83.145 0zM67.516 96.274H57.514c-43.135 0-40.01-81.27-1.875-81.27h12.503v81.27h-.626zM173.167 58.764h-15.003c-1.25 0-1.876.625-1.876 1.876v45.01h-27.507V60.64c0-1.25-.625-1.876-1.875-1.876h-14.379c-1.25 0-1.875.625-1.875 1.876v114.403c0 1.25.625 1.875 1.875 1.875h15.004c1.25 0 1.876-.625 1.876-1.875v-55.014h27.506v55.014c0 1.25.625 1.875 1.876 1.875h15.003c1.25 0 1.876-.625 1.876-1.875V60.64c-.625-1.25-1.25-1.876-2.5-1.876zM510.75 161.29c0-.625-.625-.625-1.25-.625-6.252 0-44.386 18.13-44.386-41.885 0-26.256 10.002-63.14 33.758-41.26.625.625 1.25.625 1.875.625s1.25-.625 1.876-1.875l6.251-10.628c.625-.625.625-1.25.625-1.875 0-1.25-1.25-1.876-2.5-2.501-41.26-20.63-62.515 17.504-62.515 61.89 0 57.514 41.885 65.641 65.64 48.137 1.25-.625 1.25-1.876 1.25-2.5l-.624-7.503zm-102.525-49.387 28.757-51.887c.625-.626 0-1.876-.625-1.876h-14.379c-4.376 0-5.626 1.25-6.877 4.376-1.25 3.126-22.505 47.512-25.006 49.387V60.015c0-.626-.625-1.876-1.25-1.876h-15.629c-.625 0-1.25.625-1.25 1.876v115.028c0 .625.625 1.875 1.25 1.875h15.629c1.25 0 1.25-.625 1.25-1.875v-59.39c1.876 1.25 28.132 55.639 28.757 57.514 1.25 2.5 3.751 3.751 6.877 3.751h15.629c1.25 0 1.25-.625.625-1.875l-33.758-63.14zm-136.909 50.013h-3.126c-3.75 0-4.376-1.25-4.376-4.377V60.015c0-1.25-.625-1.876-1.25-1.876h-48.137c-1.25 0-1.875.625-1.875 1.876 0 26.256.625 70.017-16.88 101.9h-5c-1.25 0-1.876.625-1.876 1.875v34.383c0 1.25 1.25 1.876 1.876 1.876h11.252c2.5 0 3.751-1.876 3.751-3.751v-19.38h50.638v21.255c0 .626.625 1.876 1.875 1.876h12.503c1.25 0 3.126-1.25 3.126-3.751V163.79c-.625-1.25-1.25-1.875-2.5-1.875zm-26.256 0h-35.01c10.003-16.254 19.38-42.51 19.38-88.772h15.629v88.772zM320.078 55.64c-25.631 0-37.509 31.882-37.509 66.89 0 57.515 40.01 66.267 67.516 49.388 1.25-.625 1.25-1.25 1.25-1.875l-1.875-8.127c0-.626-.625-1.25-1.875-1.25-10.003 0-45.011 17.503-45.011-39.385 12.503 1.25 12.503 1.25 50.012 1.25-.625-28.757-3.75-66.891-32.508-66.891zM303.2 108.15c0-45.636 30.007-54.388 30.007-1.25-13.128 0-18.754 0-30.007 1.25z"/></symbol></svg>