<svg >
  <symbol  xmlns="http://www.w3.org/2000/svg" viewBox="0 0 90 89" id="AI">
    <path d="M4.20239 3.7832H85.9629V84.7881H4.20239V3.7832Z" fill="url(#paint0_radial_254_448)"></path>
    <path d="M4.20239 3.78375H85.9629V84.7886H4.20239V3.78375ZM0.486816 88.5724H89.6963V0H0.486816V88.5724ZM58.9178 31.5797C58.9178 31.2705 59.025 31.1249 59.3644 31.1249H65.2057C65.5093 31.1249 65.6522 31.2341 65.6522 31.5797V61.4495C65.6522 61.7587 65.5808 61.9043 65.2057 61.9043H59.4358C59.0607 61.9043 58.9535 61.7224 58.9535 61.4131V31.5797H58.9178ZM58.5069 22.9753C58.5069 20.5559 60.1861 19.1188 62.2939 19.1188C64.5626 19.1188 66.081 20.6651 66.081 22.9753C66.081 25.4675 64.4911 26.8319 62.2225 26.8319C60.0789 26.85 58.5069 25.4857 58.5069 22.9753ZM41.7868 44.0224C40.7508 39.8203 38.2856 30.6702 37.3567 26.2315H37.2853C36.4993 30.652 34.5343 38.1467 32.9802 44.0224H41.7868ZM31.4618 50.1528L28.5322 61.5041C28.4608 61.8133 28.3536 61.8861 27.9785 61.8861H22.5123C22.1372 61.8861 22.0657 61.7769 22.1372 61.3221L32.6944 23.703C32.873 23.0299 32.9981 22.4114 33.0695 20.5559C33.0695 20.2831 33.1767 20.1739 33.3732 20.1739H41.1795C41.4474 20.1739 41.5546 20.2467 41.6261 20.5559L53.4516 61.3949C53.523 61.7042 53.4516 61.8861 53.1479 61.8861H46.9851C46.6814 61.8861 46.5028 61.8133 46.4313 61.5404L43.3767 50.1528H31.4618Z" fill="#FF7F18"></path>
    <defs>
      <radialGradient id="paint0_radial_254_448" cx="0" cy="0" r="1" gradientUnits="userSpaceOnUse" gradientTransform="translate(31.157 21.9605) scale(62.1406 61.2673)">
        <stop stop-color="#423325" stop-opacity="0.98"></stop>
        <stop offset="1" stop-color="#1C0A00"></stop>
      </radialGradient>
    </defs>
  </symbol>
  <symbol  xmlns="http://www.w3.org/2000/svg" viewBox="0 0 41 40" id="Behance">
    <g clip-path="url(#clip0_169_15)">
      <path d="M34.3201 0H5.96036C2.72049 0 0.0847168 2.62848 0.0847168 5.85938V34.1406C0.0847168 37.3715 2.72049 40 5.96036 40H34.3201C37.56 40 40.1958 37.3715 40.1958 34.1406V5.85938C40.1958 2.62848 37.56 0 34.3201 0ZM37.8455 34.1406C37.8455 36.0791 36.264 37.6562 34.3201 37.6562H5.96036C4.0165 37.6562 2.43497 36.0791 2.43497 34.1406V5.85938C2.43497 3.9209 4.0165 2.34375 5.96036 2.34375H34.3201C36.264 2.34375 37.8455 3.9209 37.8455 5.85938V34.1406Z" fill="#070707" stroke="#070707" stroke-width="0.5"></path>
      <path d="M18.9651 16.4844C18.9651 13.8995 16.8566 11.7969 14.2646 11.7969H7.21387V28.2031H14.2646C16.8566 28.2031 18.9651 26.1005 18.9651 23.5156C18.9651 22.1167 18.3467 20.8597 17.3686 20C18.3467 19.1403 18.9651 17.8833 18.9651 16.4844ZM16.6149 23.5156C16.6149 24.808 15.5606 25.8594 14.2646 25.8594H9.56412V21.1719H14.2646C15.5606 21.1719 16.6149 22.2232 16.6149 23.5156ZM9.56412 18.8281V14.1406H14.2646C15.5606 14.1406 16.6149 15.192 16.6149 16.4844C16.6149 17.7768 15.5606 18.8281 14.2646 18.8281H9.56412Z" fill="#070707" stroke="#070707" stroke-width="0.5"></path>
      <path d="M27.1911 16.4844C23.9512 16.4844 21.3154 19.1129 21.3154 22.3438C21.3154 25.5746 23.9512 28.2031 27.1911 28.2031C29.2821 28.2031 31.2321 27.081 32.2799 25.2744L30.2455 24.1006C29.6163 25.1855 28.4458 25.8594 27.1911 25.8594C25.6588 25.8594 24.3521 24.8798 23.867 23.5156H33.0667V22.3438C33.0667 19.1129 30.4309 16.4844 27.1911 16.4844ZM23.867 21.1719C24.3521 19.8077 25.6588 18.8281 27.1911 18.8281C28.7233 18.8281 30.03 19.8077 30.5151 21.1719H23.867Z" fill="#070707" stroke="#070707" stroke-width="0.5"></path>
      <path d="M22.4905 11.7969H31.8915V14.1406H22.4905V11.7969Z" fill="#070707" stroke="#070707" stroke-width="0.5"></path>
    </g>
    <defs>
      <clipPath id="clip0_169_15">
        <rect width="40.111" height="40" fill="white" transform="translate(0.0847168)"></rect>
      </clipPath>
    </defs>
  </symbol>
  <symbol  xmlns="http://www.w3.org/2000/svg" viewBox="0 0 40 41" id="Dribble">
    <path d="M30.6636 7.90189L30.9693 7.51765L30.5907 7.20501C27.6753 4.79787 23.9726 3.35998 19.9218 3.35998C18.5026 3.35998 17.1267 3.55879 15.8239 3.8845L15.0968 4.06629L15.5439 4.66785C16.9345 6.53872 18.9322 9.36428 21.3246 13.7896L21.5312 14.1718L21.9385 14.0205C26.4658 12.3395 29.1786 9.76804 30.6636 7.90189ZM13.3633 5.14412L13.1183 4.82133L12.7517 4.99422C8.2556 7.11505 4.84923 11.1659 3.50458 16.1128L3.3385 16.7238L3.97134 16.7437C6.44724 16.8217 12.3654 16.705 18.9231 14.9482L19.5416 14.7825L19.2309 14.2226C16.6875 9.63894 14.5485 6.7054 13.3633 5.14412ZM32.8171 9.4031L32.4294 8.94246L32.0478 9.40819C30.3918 11.4294 27.5165 14.0547 22.9642 15.8361L22.4579 16.0342L22.6976 16.5221C23.6791 18.5203 24.6313 20.6496 25.4989 22.949L25.6418 23.3279L26.0421 23.2668C29.3354 22.7639 32.3796 22.7639 34.679 22.944C35.2381 22.9904 35.5988 23.0425 36.0187 23.1031C36.1072 23.1159 36.1982 23.1291 36.2943 23.1426L36.8064 23.2149L36.8614 22.7007C36.9288 22.0701 36.9676 21.4368 36.9676 20.7822C36.9676 16.4287 35.3902 12.4602 32.8171 9.4031ZM20.6701 17.0304L20.485 16.6592L20.086 16.7726C12.3727 18.9639 5.57803 18.897 3.46198 18.8116L2.98015 18.7921L2.94327 19.2729L2.94069 19.3066C2.90413 19.7831 2.8666 20.2721 2.8666 20.7918C2.8666 26.0256 5.13097 30.6976 8.70191 33.8945L9.07471 34.2283L9.40819 33.8552C10.3033 32.8539 11.5039 31.5786 12.9635 30.2474L12.9655 30.2456C15.7118 27.7139 19.2452 25.0351 23.0942 23.8663L23.6111 23.7093L23.4147 23.2061C22.5532 20.9984 21.6256 18.9462 20.6701 17.0304ZM30.1596 24.9266L30.1542 24.9268C29.1431 24.9756 28.0668 25.0731 26.9723 25.2191L26.3775 25.2984L26.5628 25.8692C27.4866 28.713 28.2507 31.7255 28.7443 34.8593L28.8686 35.6482L29.5239 35.1919C32.71 32.9733 35.12 29.6763 36.2427 25.8059L36.408 25.2363L35.8186 25.1698C34.3586 25.0049 32.5073 24.8387 30.1596 24.9266ZM24.5036 26.1119L24.35 25.6585L23.8904 25.7922C20.509 26.7761 16.9721 29.3273 14.2917 31.7876C12.9965 32.9662 11.9505 34.085 11.111 35.0015L10.6983 35.452L11.2216 35.7674C13.7671 37.3018 16.723 38.2045 19.9124 38.2045C22.306 38.2045 24.5638 37.6988 26.6257 36.8078L26.9737 36.6573L26.9228 36.2816C26.4385 32.7078 25.5843 29.3017 24.5036 26.1119ZM0.867676 20.7822C0.867676 10.029 9.43492 1.2832 19.9218 1.2832C30.4087 1.2832 38.9759 10.029 38.9759 20.7822C38.9759 31.5354 30.4087 40.2812 19.9218 40.2812C9.43492 40.2812 0.867676 31.5354 0.867676 20.7822Z" fill="#070707" stroke="#070707"></path>
  </symbol>
  <symbol  xmlns="http://www.w3.org/2000/svg" viewBox="0 0 59 89" id="Figma">
    <g clip-path="url(#clip0_254_450)">
      <path d="M15.0455 88.9913C23.084 88.9913 29.6041 82.3515 29.6041 74.1655V59.3398H15.0455C7.00695 59.3398 0.486816 65.9796 0.486816 74.1655C0.486816 82.3515 7.00695 88.9913 15.0455 88.9913Z" fill="#0ACF83"></path>
      <path d="M0.486816 44.4956C0.486816 36.3097 7.00695 29.6699 15.0455 29.6699H29.6041V59.3395H15.0455C7.00695 59.3213 0.486816 52.6816 0.486816 44.4956Z" fill="#A259FF"></path>
      <path d="M0.486816 14.8257C0.486816 6.63973 7.00695 0 15.0455 0H29.6041V29.6696H15.0455C7.00695 29.6696 0.486816 23.0117 0.486816 14.8257Z" fill="#F24E1E"></path>
      <path d="M29.6219 0H44.1806C52.2191 0 58.7392 6.63973 58.7392 14.8257C58.7392 23.0117 52.2191 29.6514 44.1806 29.6514H29.6219V0Z" fill="#FF7262"></path>
      <path d="M58.7392 44.4956C58.7392 52.6816 52.2191 59.3213 44.1806 59.3213C36.1421 59.3213 29.6219 52.6816 29.6219 44.4956C29.6219 36.3097 36.1421 29.6699 44.1806 29.6699C52.2191 29.6699 58.7392 36.3097 58.7392 44.4956Z" fill="#1ABCFE"></path>
    </g>
    <defs>
      <clipPath id="clip0_254_450">
        <rect width="58.2524" height="88.9906" fill="white" transform="translate(0.486816)"></rect>
      </clipPath>
    </defs>
  </symbol>
  <symbol  xmlns="http://www.w3.org/2000/svg" viewBox="0 0 40 41" id="Instagram">
    <path d="M12.1663 1.29281H12.6663V1.2832H28.571C34.5356 1.2832 39.4181 6.26789 39.4181 12.3952V29.1692C39.4181 35.2968 34.5353 40.2812 28.5804 40.2812H12.1663C6.20035 40.2812 1.30981 35.3048 1.30981 29.1884V12.4048C1.30981 6.27805 6.20115 1.29281 12.1663 1.29281ZM3.31814 12.4135V12.4144V29.1981C3.31814 34.1842 7.2457 38.2148 12.1663 38.2148H28.5804C33.4836 38.2148 37.4097 34.1827 37.4097 29.1788V12.4048C37.4097 7.4006 33.4833 3.36885 28.571 3.36885H12.1663C7.25349 3.36885 3.32807 7.40093 3.31814 12.4135ZM31.4025 8.4829C31.4025 7.89297 31.8565 7.44489 32.4067 7.44489C32.9568 7.44489 33.4108 7.89297 33.4108 8.4829C33.4108 9.07283 32.9568 9.52092 32.4067 9.52092C31.8565 9.52092 31.4025 9.07283 31.4025 8.4829ZM10.3442 20.787C10.3442 15.1313 14.8689 10.5209 20.3733 10.5209C25.8778 10.5209 30.4025 15.1313 30.4025 20.787C30.4025 26.4428 25.8778 31.0532 20.3733 31.0532C14.8689 31.0532 10.3442 26.4428 10.3442 20.787ZM28.3942 20.787C28.3942 16.2534 24.834 12.597 20.3733 12.597C15.9127 12.597 12.3525 16.2534 12.3525 20.787C12.3525 25.3206 15.9127 28.9771 20.3733 28.9771C24.834 28.9771 28.3942 25.3206 28.3942 20.787Z" fill="#070707" stroke="#070707"></path>
  </symbol>
  <symbol  xmlns="http://www.w3.org/2000/svg" viewBox="0 0 90 89" id="PS">
    <path d="M3.71291 3.7793H85.3783V84.6339H3.71291V3.7793Z" fill="url(#paint0_radial_254_449)"></path>
    <path d="M3.71287 3.77927H85.3782V84.6338H3.71287V3.77927ZM0 88.4131H89.0733V0H0V88.4131ZM60.0664 36.2846C57.139 36.2846 56.1394 37.7927 56.1394 39.0464C56.1394 40.4091 56.7998 41.3539 60.7447 43.4253C66.564 46.296 68.3847 49.0578 68.3847 53.0915C68.3847 59.1419 63.8507 62.3943 57.728 62.3943C54.4971 62.3943 51.7125 61.722 50.1238 60.7772C49.856 60.6682 49.8203 60.4683 49.8203 60.1776V54.5995C49.8203 54.218 49.9988 54.109 50.2666 54.2906C52.605 55.8351 55.2825 56.5255 57.728 56.5255C60.6555 56.5255 61.8872 55.2718 61.8872 53.582C61.8872 52.2193 61.0304 51.0201 57.2818 49.0396C52.0159 46.4777 49.8203 43.8795 49.8203 39.5188C49.8203 34.6494 53.5689 30.5975 60.0664 30.5975C63.2617 30.5975 65.493 31.0881 66.7068 31.6514C67.0102 31.8331 67.0816 32.142 67.0816 32.4145V37.5928C67.0816 37.9017 66.9031 38.0834 66.5283 37.9744C64.886 36.9205 62.4762 36.2846 60.0664 36.2846ZM28.15 40.7725C29.0068 40.8452 29.6673 40.8452 31.1489 40.8452C35.4865 40.8452 39.5742 39.3008 39.5742 33.2866C39.5742 28.4899 36.6468 26.0733 31.7022 26.0733C30.2206 26.0733 28.8105 26.146 28.1322 26.1823L28.15 40.7725ZM21.5275 20.7133C21.5275 20.4408 22.0452 20.2591 22.3486 20.2591C24.7227 20.15 28.2571 20.0774 31.9164 20.0774C42.1982 20.0774 46.2146 25.8189 46.2146 33.1413C46.2146 42.7348 39.3779 46.8593 30.9882 46.8593C29.578 46.8593 29.0961 46.7866 28.0965 46.7866V61.2859C28.0965 61.5948 27.9894 61.7402 27.6502 61.7402H21.9738C21.6703 61.7402 21.5275 61.6311 21.5275 61.2859V20.7133Z" fill="#31C5F0"></path>
    <defs>
      <radialGradient id="paint0_radial_254_449" cx="0" cy="0" r="1" gradientUnits="userSpaceOnUse" gradientTransform="translate(30.6173 21.9191) scale(62.0565 61.1565)">
        <stop stop-color="#34364E" stop-opacity="0.98"></stop>
        <stop offset="1" stop-color="#0C0824"></stop>
      </radialGradient>
    </defs>
  </symbol>
  <symbol  xmlns="http://www.w3.org/2000/svg" viewBox="0 0 90 89" id="AE">
    <path d="M4.20239 3.7832H85.9629V84.7881H4.20239V3.7832Z" fill="url(#paint0_radial_254_447)"></path>
    <path d="M4.20239 3.78375H85.9629V84.7886H4.20239V3.78375ZM0.486816 88.5724H89.6964V0H0.486816V88.5724ZM63.598 42.6945C65.4915 42.6945 66.1703 42.6945 66.349 42.6217C66.349 42.3488 66.4204 42.1669 66.4204 41.985C66.4204 39.9476 65.4558 36.1639 61.5973 36.1639C58.0246 36.1639 56.5063 39.3473 56.1311 42.7127H63.598V42.6945ZM56.0597 47.8789C56.1311 52.9906 58.507 56.4287 64.1696 56.4287C66.3668 56.4287 68.2603 56.1195 70.2253 55.2645C70.4933 55.1554 70.6719 55.1917 70.6719 55.5374V60.2671C70.6719 60.6491 70.5647 60.831 70.2968 61.0311C68.3318 62.0134 65.8667 62.4682 62.8299 62.4682C53.0229 62.4682 49.3431 55.0826 49.3431 46.8784C49.3431 37.9466 53.8804 30.6338 61.8653 30.6338C69.9752 30.6338 72.7976 37.5646 72.7976 43.2038C72.7976 45.0229 72.6905 46.4964 72.494 47.2241C72.4225 47.5333 72.3153 47.6424 72.0116 47.7152C71.2614 47.8244 69.0821 47.9881 65.8131 47.9881H56.0775V47.8789H56.0597ZM36.1242 44.0224C35.0881 39.8203 32.5515 30.6702 31.6226 26.2315H31.5512C30.7652 30.652 28.7288 38.1467 27.2104 44.0224H36.1242ZM25.692 50.1528L22.7624 61.4677C22.691 61.7769 22.5838 61.8861 22.2086 61.8861H16.7246C16.3495 61.8861 16.278 61.7769 16.3495 61.3221L26.9067 23.7394C27.0853 23.0663 27.2104 22.5206 27.2818 20.6287C27.2818 20.3558 27.389 20.2467 27.5855 20.2467H35.3918C35.6597 20.2467 35.7669 20.3194 35.8384 20.6287L47.646 61.3949C47.7175 61.7042 47.646 61.8861 47.3424 61.8861H41.2152C40.9116 61.8861 40.7329 61.7769 40.6615 61.5041L37.6068 50.1528H25.692Z" fill="#D8A1FF"></path>
    <defs>
      <radialGradient id="paint0_radial_254_447" cx="0" cy="0" r="1" gradientUnits="userSpaceOnUse" gradientTransform="translate(31.1549 21.9444) scale(62.1407 61.2673)">
        <stop stop-color="#442F55" stop-opacity="0.98"></stop>
        <stop offset="1" stop-color="#12002C"></stop>
      </radialGradient>
    </defs>
  </symbol>
  <symbol  xmlns="http://www.w3.org/2000/svg" viewBox="0 0 40 40" id="LinkedIN">
    <path d="M34.575.643h-28.4C2.932.643.293 3.275.293 6.51v28.323c0 3.235 2.64 5.868 5.884 5.868h28.399c3.244 0 5.884-2.633 5.884-5.868V6.51c0-3.236-2.64-5.868-5.884-5.868zm3.53 34.19a3.53 3.53 0 0 1-3.53 3.521h-28.4a3.53 3.53 0 0 1-3.53-3.52V6.51a3.53 3.53 0 0 1 3.53-3.521h28.4a3.53 3.53 0 0 1 3.53 3.52v28.324z" fill="#070707" stroke="#070707" stroke-width=".5"/><mask id="a" fill="#fff"><path d="M29.164 29.686h-4.312V22.485c0-.497-.036-.988-.16-1.473-.516-1.998-2.742-1.881-3.628-.934-.445.476-.735 1.014-.748 1.679-.002.158-.012.316-.012.474v7.454H16V16.32h4.302v1.793l.034.015c.03-.042.062-.083.093-.125.43-.599.926-1.13 1.585-1.488.735-.402 1.529-.536 2.355-.512.895.026 1.745.227 2.51.709.98.617 1.579 1.52 1.929 2.604.273.844.362 1.716.363 2.598.002 2.538.001 5.077 0 7.616 0 .05-.004.1-.007.156z"/></mask><path d="M29.164 29.686h-4.312V22.485c0-.497-.036-.988-.16-1.473-.516-1.998-2.742-1.881-3.628-.934-.445.476-.735 1.014-.748 1.679-.002.158-.012.316-.012.474v7.454H16V16.32h4.302v1.793l.034.015c.03-.042.062-.083.093-.125.43-.599.926-1.13 1.585-1.488.735-.402 1.529-.536 2.355-.512.895.026 1.745.227 2.51.709.98.617 1.579 1.52 1.929 2.604.273.844.362 1.716.363 2.598.002 2.538.001 5.077 0 7.616 0 .05-.004.1-.007.156z" fill="#070707"/><path d="M29.164 29.686v.031h.029l.002-.029-.031-.002zm-4.312 0h-.03v.031h.03v-.03zm0-7.201h.032-.031zm-.16-1.473.029-.007-.03.008zm-3.628-.934.023.02-.023-.02zm-.748 1.679h-.03.03zm-.012.474h.031-.03zm0 7.454v.03h.03v-.03h-.03zm-4.304 0h-.03v.03H16v-.03zm0-13.365v-.03h-.03v.03H16zm4.302 0h.03v-.03h-.03v.03zm0 1.793h-.031v.02l.018.008.013-.028zm.034.015-.012.028.022.01.015-.02-.025-.018zm.093-.125.024.018-.024-.018zm1.585-1.488.014.026-.014-.026zm2.355-.512.001-.03v.03zm2.51.709.016-.026-.016.026zm1.929 2.604-.03.01.03-.01zm.363 2.598h.03-.03zm0 7.616h-.03.03zm-.007.126H24.852v.061H29.164v-.061zm-4.28.03V29.487h-.062V29.687h.061zm0-.198v-7.003h-.062v7.003h.061zm0-7.003c0-.499-.038-.992-.163-1.48l-.06.015c.124.481.161.97.161 1.465h.062zm-.163-1.48c-.261-1.012-.957-1.49-1.7-1.595-.74-.103-1.529.166-1.979.647l.045.042c.435-.466 1.203-.73 1.925-.628.72.1 1.395.563 1.65 1.55l.059-.016zm-3.679-.948c-.448.48-.744 1.025-.756 1.7h.061c.012-.655.298-1.186.74-1.658l-.045-.042zm-.756 1.7c-.003.155-.012.317-.012.474h.061c0-.158.01-.313.012-.474h-.061zm-.012.474v7.249h.06l.001-7.248h-.061zm0 7.249V29.686h.06V29.48h-.06zm.03.175H16v.06H20.304v-.06zm-4.273.03V16.32h-.062V29.685h.062zM16 16.351H20.302v-.061H16v.06zm4.271-.03V18.112h.061V16.32h-.061zm.018 1.82.035.015.024-.056-.034-.015-.024.056zm.072.005.092-.125-.05-.036-.092.125.05.036zm.092-.125c.43-.597.922-1.124 1.575-1.48l-.03-.053c-.663.362-1.162.897-1.594 1.497l.05.036zm1.575-1.48c.73-.398 1.518-.532 2.34-.508l.002-.06c-.83-.025-1.63.11-2.371.515l.03.053zm2.34-.508c.891.026 1.735.227 2.495.705l.032-.052c-.77-.485-1.626-.688-2.525-.714l-.002.061zm2.495.705c.973.612 1.567 1.509 1.916 2.587l.058-.018c-.352-1.09-.953-2-1.942-2.621l-.032.052zm1.916 2.587c.271.84.36 1.709.361 2.589h.062c-.001-.885-.09-1.76-.365-2.608l-.058.02zm.361 2.589c.003 2.538.001 5.077.001 7.616h.061c0-2.539.002-5.078 0-7.616h-.062zm.001 7.616c0 .048-.004.096-.007.155l.06.003c.004-.056.008-.107.008-.158h-.06z" fill="#070707" mask="url(#a)"/><path d="M15.61 29.67H11.36V16.325H15.61V29.67zM13.67 9.672c.67-.001 1.24.236 1.645.643.404.406.643.982.645 1.659.002.67-.238 1.24-.648 1.644-.41.403-.991.64-1.675.64-1.332.002-2.281-.95-2.284-2.29-.002-1.34.96-2.295 2.316-2.296z" fill="#070707" stroke="#070707" stroke-width=".031"/>
  </symbol>
</svg>